<?xml version="1.0" encoding="utf-8"?>
<!-- Generator: Adobe Illustrator 21.1.0, SVG Export Plug-In . SVG Version: 6.00 Build 0)  -->
<svg version="1.1" id="Режим_изоляции"
	 xmlns="http://www.w3.org/2000/svg" xmlns:xlink="http://www.w3.org/1999/xlink" x="0px" y="0px" viewBox="0 0 155 69.5"
	 style="enable-background:new 0 0 155 69.5;" xml:space="preserve">
<style type="text/css">
	.st0{fill:#0088B5;}
	.st1{fill:#004363;}
	.st2{fill:#FFFFFF;}
</style>
<g>
	<g>
		<path class="st0" d="M24.6,0C24.6,0,0,28.4,0,44.7C0,58,9.4,69.5,24.6,69.5c15.5,0,24.6-11.9,24.6-24.4C49.2,30.1,24.6,0,24.6,0z"
			/>
		<path class="st1" d="M24.6,0v69.5c15.5,0,24.6-11.9,24.6-24.4C49.2,30.1,24.6,0,24.6,0z"/>
		<path class="st2" d="M33.6,29.2C34.5,26.1,35,24,35,24c0-1.8-4.3-3.3-10.4-3.3S14.3,22.4,14.3,24c0,0,0.2,0.6,0.4,1.7
			c-1.9,0.1-3.1,0.5-3.3,1.2c-0.3,1.6,5.2,4,12.3,5.5c0.1,0,0.2,0.1,0.2,0.1c0,0.9-7.6-0.7-7.6-0.7c0.3,1.2,0.6,2.3,0.9,3.5
			c-2.1,0-3.5,0.4-3.6,1.1c-0.3,1.3,4.2,3.3,10.1,4.6c0.1,0,0.2,0.1,0.2,0.1c0,0.8-5.3-0.5-5.3-0.5c0.3,1.1,0.5,2,0.8,2.8
			c-2.1-0.1-3.5,0.2-3.6,0.8c-0.2,1,3.3,2.6,7.9,3.6c0.2,0.1,0.3,0.1,0.3,0.1c0,0.7-3.3-0.1-3.3-0.1c0.3,1,0.5,1.8,0.7,2.5
			c-2-0.1-3.3,0.1-3.4,0.6c-0.2,0.8,2.5,2,6,2.8c0,0,0.1,0,0.1,0.1c0,0.5-1.5,0.3-1.5,0.3c1.2,3.9,1.9,6.1,2.3,6.1
			c0.3,0,1.1-2.4,2.2-6c2.6,0.3,4.4,0.1,4.6-0.5c0.1-0.6-1.4-1.5-3.8-2.2c0.3-1,0.6-2,0.9-3c2.9,0.2,4.9,0,5.1-0.8
			c0.1-0.7-1.5-1.7-4.1-2.6c0.3-1.1,0.6-2.2,0.9-3.4c3.1,0.2,5.2-0.2,5.4-1c0.2-0.8-1.5-1.9-4.3-2.9c0.4-1.5,0.8-2.9,1.1-4.3
			c3.1,0.1,5.1-0.4,5.3-1.3C38,31.5,36.4,30.3,33.6,29.2z"/>
	</g>
	<g>
		<g>
			<path class="st0" d="M59.8,37.2L66,10.3C66.2,9.4,66.5,9,66.9,9h6c0.4,0,0.7,0.3,0.9,1l6.7,27.3c0.1,0.4-0.1,0.6-0.5,0.6h-4.7
				c-0.4,0-0.7-0.3-0.8-0.8c-0.4-1.5-0.7-2.5-0.9-3.2c-0.1-0.5-0.3-0.7-0.4-0.7h-6.3l-0.4,0.5c-0.3,1-0.6,2.1-0.9,3.2
				c-0.2,0.7-0.5,1-0.8,1h-4.5c-0.3,0-0.4-0.2-0.4-0.6C59.8,37.3,59.8,37.2,59.8,37.2z M67.9,27.5H72l-1.8-7.9
				c0-0.2-0.2-0.3-0.4-0.3c0,0-0.1,0-0.1,0L67.9,27.5z"/>
			<path class="st0" d="M91.6,25.9v11.2c0,0.5-0.3,0.8-0.8,0.8h-4.5c-0.4,0-0.6-0.3-0.6-0.8V9.6C85.7,9.2,86,9,86.6,9h4.1
				c0.6,0,1,0.2,1,0.6v10.1l0.3,0.2h2.8c0.3,0,0.7-0.3,1-0.8c0.4-0.5,0.5-0.9,0.5-1.1v-5.4c0-1.6,0.9-2.8,2.7-3.4
				c0.4-0.2,1.3-0.3,2.7-0.3c0.6,0,1.2,0,1.8,0c0.5,0.2,0.8,0.4,0.8,0.6V13c0,0.3-0.2,0.5-0.6,0.7c-0.6,0-1,0.1-1.3,0.2
				c-0.4,0.1-0.5,0.3-0.5,0.6v5.2c0,0.2-0.2,0.6-0.5,1.1c-0.4,0.5-0.8,1-1.3,1.5c0,0,0,0,0,0.1c0,0.1,0.1,0.2,0.3,0.3
				c0.6,0.4,1,0.7,1.3,0.9c0.4,0.3,0.7,0.6,1.1,1c0.5,0.5,0.7,1.2,0.7,2v10.7l-0.7,0.6h-4.5l-0.8-0.6v-8.8c0-1.2-0.6-2.1-1.8-2.6
				c-0.4-0.2-1.2-0.3-2.4-0.3c-0.7,0-1.1,0-1.2,0L91.6,25.9z"/>
			<path class="st0" d="M128.6,33.5c-1.2,3-3.6,4.5-7.1,4.5h-10.7c-0.4,0-0.6-0.3-0.6-0.8V9.6c0-0.4,0.2-0.6,0.6-0.6h9.9
				c0.1,0,0.6,0.1,1.3,0.2c0.6,0.1,1.3,0.3,2.1,0.6c2.6,1,3.9,3.1,3.9,6.5c0,2.2-1.1,4.2-3.2,5.8c-0.1,0-0.2,0.1-0.3,0.2
				c0,0,0.4,0.3,1.1,0.6c0.2,0.1,0.4,0.3,0.7,0.4c0.5,0.5,0.9,0.8,1,0.9c1.3,1.3,2,3.2,2,5.6C129.3,31.2,129.1,32.4,128.6,33.5z
				 M116.1,14.5v5.2l0.2,0.2c0.1,0,0.5,0,1.1,0c1.2,0,2-0.1,2.5-0.3c1.2-0.4,1.8-1.3,1.8-2.8c0-1.6-0.8-2.5-2.4-2.6
				c-0.3,0-0.8,0-1.8,0c-0.7,0-1.1,0-1.2,0L116.1,14.5z M116.1,25.7v6.7l0.2,0.2c0.1,0,0.6,0,1.3,0c1,0,1.6,0,1.9,0
				c2.2-0.1,3.3-1.3,3.3-3.6c0-1.6-0.8-2.7-2.4-3.3c-0.5-0.2-1.4-0.3-2.8-0.3c-0.7,0-1.2,0-1.3,0L116.1,25.7z"/>
			<path class="st0" d="M134.3,37.2l6.2-26.9c0.2-0.9,0.5-1.3,0.8-1.3h6c0.4,0,0.7,0.3,0.9,1l6.7,27.3c0.1,0.4-0.1,0.6-0.5,0.6h-4.7
				c-0.4,0-0.7-0.3-0.8-0.8c-0.4-1.5-0.7-2.5-0.9-3.2c-0.1-0.5-0.3-0.7-0.4-0.7h-6.3l-0.4,0.5c-0.3,1-0.6,2.1-0.9,3.2
				c-0.2,0.7-0.5,1-0.8,1h-4.5c-0.3,0-0.4-0.2-0.4-0.6C134.3,37.3,134.3,37.2,134.3,37.2z M142.4,27.5h4.1l-1.8-7.9
				c0-0.2-0.2-0.3-0.4-0.3c0,0-0.1,0-0.1,0L142.4,27.5z"/>
		</g>
		<g>
			<path d="M62.9,49H60c-0.2,0-0.3-0.1-0.3-0.4v-2c0-0.2,0.1-0.3,0.2-0.3h9.2c0.1,0,0.2,0.1,0.2,0.3v2c0,0.2-0.1,0.4-0.2,0.4h-3
				L66,49.1v11.1l-0.4,0.3h-2.2L63,60.3V49.1L62.9,49z"/>
			<path d="M81.6,46.3h7.2l0.3,0.3v1.9c0,0.2-0.1,0.4-0.3,0.4h-4.5L84.3,49v2.7h3.5L88,52v2.1l-0.2,0.2h-3.4l-0.1,0.2V58h4.9
				l0.2,0.3v2.1c0,0.1-0.1,0.2-0.3,0.2h-7.4c-0.2,0-0.3-0.1-0.3-0.4V46.6L81.6,46.3z"/>
			<path d="M105,55v5.2c0,0.3-0.1,0.4-0.4,0.4h-2.2c-0.2,0-0.3-0.1-0.3-0.4V46.6c0-0.2,0.1-0.3,0.4-0.3h4.7c2,0,3.3,0.9,3.9,2.6
				c0.1,0.4,0.2,1,0.2,1.6c0,1.8-0.8,3.1-2.6,3.9c-0.4,0.2-0.8,0.3-1.4,0.3c-0.7,0.1-1.5,0.1-2.2,0.1L105,55z M105.1,48.9V52
				l0.1,0.1c0.1,0,0.3,0,0.6,0c0.5,0,0.8,0,0.9,0c0.9-0.1,1.4-0.6,1.4-1.6c0-1-0.4-1.5-1.3-1.5L105.1,48.9L105.1,48.9z"/>
			<path d="M126.7,55v5.2c0,0.3-0.1,0.4-0.4,0.4h-2.2c-0.2,0-0.3-0.1-0.3-0.4V46.6c0-0.2,0.1-0.3,0.4-0.3h4.7c2,0,3.3,0.9,3.9,2.6
				c0.1,0.4,0.2,1,0.2,1.6c0,1.8-0.8,3.1-2.6,3.9c-0.4,0.2-0.8,0.3-1.4,0.3c-0.7,0.1-1.5,0.1-2.2,0.1L126.7,55z M126.7,48.9V52
				l0.1,0.1c0.1,0,0.3,0,0.6,0c0.5,0,0.8,0,0.9,0c0.9-0.1,1.4-0.6,1.4-1.6c0-1-0.4-1.5-1.3-1.5L126.7,48.9L126.7,48.9z"/>
			<path d="M144.8,60.2l3.1-13.3c0.1-0.4,0.2-0.6,0.4-0.6h3c0.2,0,0.4,0.2,0.4,0.5l3.3,13.5c0,0.2,0,0.3-0.2,0.3h-2.3
				c-0.2,0-0.3-0.1-0.4-0.4c-0.2-0.7-0.3-1.2-0.4-1.6c-0.1-0.2-0.1-0.3-0.2-0.3h-3.1l-0.2,0.2c-0.1,0.5-0.3,1.1-0.4,1.6
				c-0.1,0.4-0.2,0.5-0.4,0.5H145c-0.1,0-0.2-0.1-0.2-0.3C144.8,60.2,144.8,60.2,144.8,60.2z M148.8,55.4h2l-0.9-3.9
				c0-0.1-0.1-0.1-0.2-0.1c0,0,0,0,0,0L148.8,55.4z"/>
		</g>
	</g>
</g>
</svg>
