<?xml version="1.0" encoding="utf-8"?>
<!-- Generator: Adobe Illustrator 21.1.0, SVG Export Plug-In . SVG Version: 6.00 Build 0)  -->
<svg version="1.1" id="Режим_изоляции"
	 xmlns="http://www.w3.org/2000/svg" xmlns:xlink="http://www.w3.org/1999/xlink" x="0px" y="0px" viewBox="0 0 66.1 13.1"
	 style="enable-background:new 0 0 66.1 13.1;" xml:space="preserve">
<style type="text/css">
	.st0{fill:#858585;}
</style>
<path class="st0" d="M2147.9,12.1c-16.5,0-16.5-12.1-33.1-12.1c-16.5,0-16.5,12.1-33,12.1c-16.5,0-16.5-12.1-33-12.1
	c-16.5,0-16.5,12.1-33,12.1S1999.2,0,1982.7,0c-16.5,0-16.5,12.1-33,12.1c-16.5,0-16.5-12.1-33-12.1c-16.5,0-16.5,12.1-33,12.1
	c-16.5,0-16.5-12.1-33-12.1c-16.5,0-16.5,12.1-33,12.1c-16.5,0-16.5-12.1-33-12.1c-16.5,0-16.5,12.1-33,12.1
	c-16.5,0-16.5-12.1-33-12.1c-16.5,0-16.5,12.1-33,12.1c-16.5,0-16.5-12.1-33-12.1v0c0,0,0,0,0,0s0,0,0,0c-16.5,0-16.5,12.1-33,12.1
	c-16.5,0-16.5-12.1-33-12.1c0,0,0,0,0,0s0,0,0,0v0c-16.5,0-16.5,12.1-33,12.1c-16.5,0-16.5-12.1-33-12.1c-16.5,0-16.5,12.1-33,12.1
	S1470.5,0,1454,0c-16.5,0-16.5,12.1-33,12.1c-16.5,0-16.5-12.1-33-12.1c-16.5,0-16.5,12.1-33,12.1c-16.5,0-16.5-12.1-33-12.1
	c-16.5,0-16.5,12.1-33,12.1c-16.5,0-16.5-12.1-33-12.1c-16.5,0-16.5,12.1-33,12.1c-16.5,0-16.5-12.1-33-12.1
	c-16.5,0-16.5,12.1-33,12.1c-16.5,0-16.5-12.1-33-12.1c0,0-0.1,0-0.1,0v0c-16.5,0-16.5,12.1-33,12.1c-16.4,0-16.5-12.1-33-12.1v0
	c-0.1,0-0.1,0-0.2,0c-16.5,0-16.5,12.1-33,12.1c-16.5,0-16.5-12.1-33-12.1c-16.5,0-16.5,12.1-33,12.1c-16.5,0-16.5-12.1-33-12.1
	c-16.5,0-16.5,12.1-33,12.1c-16.5,0-16.5-12.1-33-12.1c-16.5,0-16.5,12.1-33,12.1C809.5,12.1,809.5,0,793,0
	c-16.5,0-16.5,12.1-33,12.1c-16.5,0-16.5-12.1-33-12.1c-16.5,0-16.5,12.1-33,12.1c-16.5,0-16.5-12.1-33-12.1
	c-16.5,0-16.5,12.1-33,12.1c-16.5,0-16.5-12.1-33-12.1v0c0,0,0,0,0,0c0,0,0,0,0,0c-16.5,0-16.5,12.1-33,12.1
	c-16.5,0-16.5-12.1-33-12.1c0,0,0,0,0,0c0,0,0,0,0,0v0c-16.5,0-16.5,12.1-33,12.1c-16.5,0-16.5-12.1-33-12.1
	c-16.5,0-16.5,12.1-33,12.1C413,12.1,413,0,396.5,0c-16.5,0-16.5,12.1-33,12.1c-16.5,0-16.5-12.1-33-12.1c-16.5,0-16.5,12.1-33,12.1
	c-16.5,0-16.5-12.1-33-12.1c-16.5,0-16.5,12.1-33,12.1S214.8,0,198.2,0c-16.5,0-16.5,12.1-33,12.1c-16.5,0-16.5-12.1-33-12.1
	c-16.5,0-16.5,12.1-33,12.1C82.6,12.1,82.6,0,66.1,0C49.6,0,49.6,12.1,33,12.1C16.5,12.1,16.5,0,0,0v1c16.5,0,16.5,12.1,33,12.1
	C49.6,13.1,49.6,1,66.1,1c16.5,0,16.5,12.1,33,12.1c16.5,0,16.5-12.1,33-12.1c16.5,0,16.5,12.1,33,12.1c16.5,0,16.5-12.1,33-12.1
	c16.5,0,16.5,12.1,33,12.1S247.8,1,264.3,1c16.5,0,16.5,12.1,33,12.1c16.5,0,16.5-12.1,33-12.1c16.5,0,16.5,12.1,33,12.1
	C380,13.1,380,1,396.5,1c16.5,0,16.5,12.1,33,12.1c16.5,0,16.5-12.1,33-12.1c16.5,0,16.5,12.1,33,12.1c16.5,0,16.5-12.1,33-12.1v0
	c0,0,0,0,0,0c0,0,0,0,0,0c16.5,0,16.5,12.1,33,12.1c16.5,0,16.5-12.1,33-12.1c0,0,0,0,0,0c0,0,0,0,0,0v0c16.5,0,16.5,12.1,33,12.1
	c16.5,0,16.5-12.1,33-12.1c16.5,0,16.5,12.1,33,12.1c16.5,0,16.5-12.1,33-12.1c16.5,0,16.5,12.1,33,12.1c16.5,0,16.5-12.1,33-12.1
	c16.5,0,16.5,12.1,33,12.1c16.5,0,16.5-12.1,33-12.1c16.5,0,16.5,12.1,33,12.1c16.5,0,16.5-12.1,33-12.1c16.5,0,16.5,12.1,33,12.1
	c16.5,0,16.5-12.1,33-12.1c16.5,0,16.5,12.1,33,12.1c16.5,0,16.5-12.1,33-12.1c0.1,0,0.1,0,0.2,0v0c16.5,0,16.5,12.1,33,12.1
	c16.4,0,16.5-12.1,33-12.1v0c0,0,0.1,0,0.1,0c16.5,0,16.5,12.1,33,12.1c16.5,0,16.5-12.1,33-12.1c16.5,0,16.5,12.1,33,12.1
	c16.5,0,16.5-12.1,33-12.1c16.5,0,16.5,12.1,33,12.1c16.5,0,16.5-12.1,33-12.1c16.5,0,16.5,12.1,33,12.1c16.5,0,16.5-12.1,33-12.1
	c16.5,0,16.5,12.1,33,12.1c16.5,0,16.5-12.1,33-12.1c16.5,0,16.5,12.1,33,12.1s16.5-12.1,33-12.1c16.5,0,16.5,12.1,33,12.1
	c16.5,0,16.5-12.1,33-12.1v0c0,0,0,0,0,0s0,0,0,0c16.5,0,16.5,12.1,33,12.1c16.5,0,16.5-12.1,33-12.1c0,0,0,0,0,0s0,0,0,0v0
	c16.5,0,16.5,12.1,33,12.1c16.5,0,16.5-12.1,33-12.1c16.5,0,16.5,12.1,33,12.1c16.5,0,16.5-12.1,33-12.1c16.5,0,16.5,12.1,33,12.1
	c16.5,0,16.5-12.1,33-12.1c16.5,0,16.5,12.1,33,12.1c16.5,0,16.5-12.1,33-12.1c16.5,0,16.5,12.1,33,12.1c16.5,0,16.5-12.1,33-12.1
	c16.5,0,16.5,12.1,33,12.1s16.5-12.1,33-12.1c16.5,0,16.5,12.1,33,12.1c16.5,0,16.5-12.1,33-12.1c16.5,0,16.5,12.1,33.1,12.1
	c16.5,0,16.5-12.1,33-12.1V0C2164.4,0,2164.4,12.1,2147.9,12.1z"/>
</svg>
