<?xml version="1.0" encoding="utf-8"?>
<!-- Generator: Adobe Illustrator 21.1.0, SVG Export Plug-In . SVG Version: 6.00 Build 0)  -->
<svg version="1.1" id="Слой_1" xmlns="http://www.w3.org/2000/svg" xmlns:xlink="http://www.w3.org/1999/xlink" x="0px" y="0px"
	 viewBox="0 0 30 30" style="enable-background:new 0 0 30 30;" xml:space="preserve">
<style type="text/css">
	.st0{fill:#FFFFFF;}
</style>
<path class="st0" d="M15,30C6.7,30,0,23.3,0,15C0,6.7,6.7,0,15,0c8.3,0,15,6.7,15,15C30,23.3,23.3,30,15,30L15,30z M14.2,6
	c0,0-0.1,0.5-0.7,2.2S8.1,12.7,8,17.1c-0.1,4.4,5.7,5.9,5.7,5.9s-1-1.3-1.3-2.9c-0.3-1.6,0.9-2.9,0.9-2.9s0.2,2.9,2.4,1.7
	c2.2-1.2,0.5-5.9,0.5-5.9s2,1.7,2.5,3.9c0.5,2.1-1.3,6.1-1.3,6.1s4.6-1.4,4.6-6.5S14.2,6,14.2,6L14.2,6z"/>
</svg>
