<?xml version="1.0" encoding="utf-8"?>
<!-- Generator: Adobe Illustrator 21.1.0, SVG Export Plug-In . SVG Version: 6.00 Build 0)  -->
<svg version="1.1" id="Слой_1" xmlns="http://www.w3.org/2000/svg" xmlns:xlink="http://www.w3.org/1999/xlink" x="0px" y="0px"
	 viewBox="0 0 30 30" style="enable-background:new 0 0 30 30;" xml:space="preserve">
<style type="text/css">
	.st0{fill:#FFFFFF;}
</style>
<g>
	<path class="st0" d="M15,0C6.7,0,0,6.7,0,15c0,8.3,6.7,15,15,15c8.3,0,15-6.7,15-15C30,6.7,23.3,0,15,0z M9.3,7.3C12,4.9,17,3,17,3
		s2.3,5.4-0.1,7.6c-2.4,2.2-6.4,4.4-6.4,4.4s-0.5-1.5,0.6-2.9c1.1-1.4,2-1.4,3.3-2.6c1.2-1.3,0.9-1.6,0.9-1.6s-1,1.2-2.6,1.7
		c-1.5,0.5-2.9,1.5-3.2,2.8s-0.4,2-0.4,2S6.5,9.8,9.3,7.3z M11.2,20.4H6c0,1,0.8,1.6,1.9,1.6c0.8,0,1.6-0.2,2.3-0.5l1,1.1
		c-0.8,0.6-1.9,1.2-3.3,1.2c-2.3,0-3.8-1.7-3.8-3.8c0-2.1,1.4-3.9,3.8-3.9c1.6,0,2.7,0.8,3.3,2C11.4,18.8,11.4,19.8,11.2,20.4z
		 M15.3,21.9c0.7,0,1.2-0.2,1.8-0.8l1.1,1.2c-0.7,0.8-1.8,1.4-3,1.4c-2.1,0-3.8-1.7-3.8-3.8s1.7-3.8,3.8-3.8c1.2,0,2.3,0.5,3,1.4
		l-1.1,1.2c-0.6-0.6-1.2-0.8-1.8-0.8c-1,0-1.9,0.8-1.9,2C13.3,21.1,14.2,21.9,15.3,21.9z M22.1,23.8c-2.1,0-3.8-1.7-3.8-3.8
		s1.7-3.9,3.8-3.9s3.9,1.7,3.9,3.9S24.3,23.8,22.1,23.8z"/>
	<path class="st0" d="M7.8,17.8c-1,0-1.7,0.7-1.7,1.4h3.4c0-0.2-0.1-0.4-0.2-0.6C9,18.2,8.5,17.8,7.8,17.8z"/>
	<path class="st0" d="M22.1,17.9c-1,0-1.9,0.8-1.9,2c0,1.2,0.9,2,1.9,2c1,0,1.9-0.8,1.9-2C24.1,18.7,23.1,17.9,22.1,17.9z"/>
</g>
</svg>
