<?xml version="1.0" encoding="utf-8"?>
<!-- Generator: Adobe Illustrator 21.1.0, SVG Export Plug-In . SVG Version: 6.00 Build 0)  -->
<svg version="1.1" id="Режим_изоляции"
	 xmlns="http://www.w3.org/2000/svg" xmlns:xlink="http://www.w3.org/1999/xlink" x="0px" y="0px" viewBox="0 0 62 21.5"
	 style="enable-background:new 0 0 62 21.5;" xml:space="preserve">
<style type="text/css">
	.st0{fill:#0087B5;}
</style>
<path class="st0" d="M-30.9,21.5c7.7,0,7.7-5.7,15.4-5.7s7.7,5.7,15.5,5.7c7.7,0,7.7-5.7,15.5-5.7c7.7,0,7.7,5.7,15.5,5.7
	c7.7,0,7.7-5.7,15.5-5.7c7.7,0,7.7,5.7,15.5,5.7c7.7,0,7.7-5.7,15.5-5.7c7.7,0,7.7,5.7,15.5,5.7c7.7,0,7.7-5.7,15.5-5.7
	c7.7,0,7.7,5.7,15.5,5.7c7.7,0,7.7-5.7,15.5-5.7c7.7,0,7.7,5.7,15.5,5.7c7.7,0,7.7-5.7,15.5-5.7c7.7,0,7.7,5.7,15.5,5.7
	c7.7,0,7.7-5.7,15.5-5.7c7.7,0,7.7,5.7,15.4,5.7l0,0l0,0l0,0c7.7,0,7.7-5.7,15.4-5.7c7.7,0,7.7,5.7,15.4,5.7l0,0l0,0l0,0
	c7.7,0,7.7-5.7,15.4-5.7c7.7,0,7.7,5.7,15.5,5.7c7.7,0,7.7-5.7,15.5-5.7c7.7,0,7.7,5.7,15.5,5.7c7.7,0,7.7-5.7,15.5-5.7
	c7.7,0,7.7,5.7,15.5,5.7c7.7,0,7.7-5.7,15.5-5.7c7.7,0,7.7,5.7,15.5,5.7c7.7,0,7.7-5.7,15.5-5.7c7.7,0,7.7,5.7,15.5,5.7
	c7.7,0,7.7-5.7,15.5-5.7c7.7,0,7.7,5.7,15.5,5.7c7.7,0,7.7-5.7,15.5-5.7c7.7,0,7.7,5.7,15.5,5.7c0,0,0,0,0.1,0l0,0
	c7.7,0,7.7-5.7,15.4-5.7s7.7,5.7,15.4,5.7l0,0c0,0,0,0,0.1,0c7.7,0,7.7-5.7,15.5-5.7c7.7,0,7.7,5.7,15.5,5.7c7.7,0,7.7-5.7,15.5-5.7
	c7.7,0,7.7,5.7,15.5,5.7c7.7,0,7.7-5.7,15.5-5.7c7.7,0,7.7,5.7,15.5,5.7c7.7,0,7.7-5.7,15.5-5.7c7.7,0,7.7,5.7,15.5,5.7
	c7.7,0,7.7-5.7,15.5-5.7c7.7,0,7.7,5.7,15.5,5.7c7.7,0,7.7-5.7,15.5-5.7c7.7,0,7.7,5.7,15.5,5.7c7.7,0,7.7-5.7,15.5-5.7
	c7.7,0,7.7,5.7,15.4,5.7l0,0l0,0l0,0c7.7,0,7.7-5.7,15.4-5.7s7.7,5.7,15.4,5.7l0,0l0,0l0,0c7.7,0,7.7-5.7,15.4-5.7s7.7,5.7,15.5,5.7
	c7.7,0,7.7-5.7,15.5-5.7c7.7,0,7.7,5.7,15.5,5.7c7.7,0,7.7-5.7,15.5-5.7c7.7,0,7.7,5.7,15.5,5.7c7.7,0,7.7-5.7,15.5-5.7
	c7.7,0,7.7,5.7,15.5,5.7s7.7-5.7,15.5-5.7c7.7,0,7.7,5.7,15.5,5.7c7.7,0,7.7-5.7,15.5-5.7c7.7,0,7.7,5.7,15.5,5.7
	c7.7,0,7.7-5.7,15.5-5.7c7.7,0,7.7,5.7,15.5,5.7c7.7,0,7.7-5.7,15.5-5.7c7.7,0,7.7,5.7,15.5,5.7V0H741.9h-31.1H494.5h-31H247.3
	h-31.1H-30.9V21.5z"/>
</svg>
