<?xml version="1.0" encoding="utf-8"?>
<!-- Generator: Adobe Illustrator 26.2.1, SVG Export Plug-In . SVG Version: 6.00 Build 0)  -->
<svg version="1.1" id="Слой_1" xmlns:xodm="http://www.corel.com/coreldraw/odm/2003"
	 xmlns="http://www.w3.org/2000/svg" xmlns:xlink="http://www.w3.org/1999/xlink" x="0px" y="0px" viewBox="0 0 1672.4 708.7"
	 style="enable-background:new 0 0 1672.4 708.7;" xml:space="preserve">
<style type="text/css">
	.st0{fill-rule:evenodd;clip-rule:evenodd;fill:url(#SVGID_1_);}
	.st1{fill-rule:evenodd;clip-rule:evenodd;fill:url(#SVGID_00000002377169631734276710000005549014822833982354_);}
	.st2{fill-rule:evenodd;clip-rule:evenodd;fill:url(#SVGID_00000173136204403834569090000014162084791490921125_);}
	.st3{fill-rule:evenodd;clip-rule:evenodd;fill:#E50201;}
	.st4{fill:#FFFFFF;}
	.st5{fill:url(#SVGID_00000157282174527122133510000009672648893375102599_);}
	.st6{fill:#E50201;}
	.st7{fill:#E84242;}
</style>
<g id="__x2014_лой_x0020_1">
	<g id="_105553231568864">
		<radialGradient id="SVGID_1_" cx="61.0239" cy="293.4964" r="1.172018e-05" gradientUnits="userSpaceOnUse">
			<stop  offset="0" style="stop-color:#FF0000"/>
			<stop  offset="1" style="stop-color:#FF6600"/>
		</radialGradient>
		<polygon class="st0" points="61,293.5 61,293.5 61,293.5 		"/>
		
			<radialGradient id="SVGID_00000085929935206302999580000000130056819986381998_" cx="384.4667" cy="333.3245" r="332.4728" gradientUnits="userSpaceOnUse">
			<stop  offset="0" style="stop-color:#FF0000"/>
			<stop  offset="1" style="stop-color:#FF6600"/>
		</radialGradient>
		<path style="fill-rule:evenodd;clip-rule:evenodd;fill:url(#SVGID_00000085929935206302999580000000130056819986381998_);" d="
			M1651.7,680.6l-1565.2,0l0-399.8c0-7-5.7-12.8-12.8-12.8l-21,0L363.3,31.5l318.3,236.4h-15c-7,0-12.8,5.7-12.8,12.8l0,140.7
			c0,7,5.7,12.8,12.8,12.8c7,0,12.8-5.7,12.8-12.8l0-128h40.8c5.6,0,10.4-3.4,12.1-8.8c1.8-5.3,0-10.9-4.5-14.2L370.9,5.3
			c-4.6-3.4-10.7-3.4-15.3,0.1L7.2,270.6c-4.4,3.4-6.1,9-4.4,14.2c1.8,5.3,6.5,8.7,12.1,8.7l46.1,0h0h0l0,399.8
			c0,7,5.7,12.8,12.8,12.8l1577.9,0c7,0,12.8-5.7,12.8-12.8S1658.8,680.6,1651.7,680.6z"/>
		
			<radialGradient id="SVGID_00000058546973766704568440000004313908810985343365_" cx="252.9128" cy="362.9618" r="130.2261" gradientUnits="userSpaceOnUse">
			<stop  offset="0" style="stop-color:#FF0000"/>
			<stop  offset="1" style="stop-color:#FF6600"/>
		</radialGradient>
		<path style="fill-rule:evenodd;clip-rule:evenodd;fill:url(#SVGID_00000058546973766704568440000004313908810985343365_);" d="
			M666.7,615.6c-7,0-12.8,5.7-12.8,12.8l0,10.4H151l0-365.3L363.5,124L592,273.9h0v147.5c0,7,5.7,12.8,12.8,12.8
			c7,0,12.8-5.7,12.8-12.8V267c0-4.4-2.1-8.2-5.8-10.7L370.3,97.9c-4.5-2.9-10-2.8-14.3,0.2l-225,158.3c-3.5,2.5-5.4,6.1-5.4,10.4
			l0,384.7c0,7,5.7,12.8,12.8,12.8h528.4c7,0,12.8-5.7,12.8-12.8l0-23.2C679.4,621.3,673.7,615.6,666.7,615.6z"/>
		<path class="st3" d="M484.6,404.3l-32.2,19.8c-6.2,2.9-7.5,2.5-11.1,3.9l94.4,1.5l0.3-70.7c-0.1-9.3,0.2-3.4-2.4-5.1
			c0.3,4-19.9,46.1-23,53.8C506.2,404.5,491.1,400.1,484.6,404.3z"/>
		<path class="st3" d="M506.7,333.9c2.7-5.1,3.6-7.9,8.6-10.3c4.2-2.1,10.1-2.7,15.2-1.8c1.7,0.3,4.4,0.9,5.6,1.2l0-3l0-49.3
			l-65.2-0.1c-3,0.1-3.5,0.1-3.6,0.1l0,2c8.7-0.2,20.2,8.2,24.5,12.4c5.3,5.1,10.2,14.3,13,23.8c4.9,16.8,0.7,16.6-11.6,37.4
			c-4.3,7.4-8.4,14.9-13.4,21.8c-2.8-6.1-0.7-33.2-28.4-48.7c-21.6-12.1-40.1-8.2-61.6,0.2c2.3-9,45.7-44.9,58.8-48.9l-71-0.1
			l-0.4,68c6.2-5.9,8.6-8.9,17.1-13.9c5.8-3.4,13.5-6.4,24.8-6.6c15.8-0.3,29.1,6.1,37.4,14.2c22.2,21.7,22.5,53.9,1.1,71.9
			c-24.3,20.5-56.5,11-70-11c-17-27.5,1.7-59.2,29.6-61c16.4-1.1,28.6,7.3,34.9,16.4c8.1,11.6,9.7,27.6,1.2,39.4
			c-18.1,25-59.7,12.6-57.7-19.3c0.9-13.9,13.3-24.8,28.9-22.1c11.3,1.9,24.9,14.9,19.1,29.7c-5.5,14-25.1,14.5-31.5,2.5
			c-7.9-14.8,7-23.1,15-16c1.5,1.3,5.5,6.4,1.5,9.7c-4.3,3.2-3.9-3-6.3-5.6l-5.6,0.4c-4.3,20.6,29.8,17.2,20.2-4.3
			c-6.1-13.7-28.5-13.1-33.9,0.8c-6.2,15.9,8.5,30.4,22,31.4c36,2.8,36.8-50.4,0.9-56.2c-17.4-2.8-31.1,7.6-35.9,18.8
			c-12.9,30.3,21,61.3,51.9,48.8c49.1-19.8,19.8-92.8-32.2-81.1c-13.4,3-27.4,13.9-31.7,24.2c-2,4.9-0.9,19.7-0.9,26.1
			c0,12.6-1.4,14.2,4.6,23.3c20.8,31.5,68.1,32.5,89.8,1.5c3-4.3,8.2-13.3,12.8-22C492,363.9,498.8,348.5,506.7,333.9L506.7,333.9z"
			/>
		<path class="st3" d="M377.1,429.4l39.9,0c-10.6-4.4-21.3-5.9-31.4-16.3c-2.1-2.2-6.3-7-8.3-8.5L377.1,429.4L377.1,429.4z"/>
		<polygon class="st3" points="198,272.8 355.7,272.8 355.7,428.9 198,428.9 		"/>
		<path class="st4" d="M351.8,404.9c-0.2-43.8-0.4-87.6-0.6-131.4c-1,0-1.9,0-2.9,0c0-0.6,0.1-1.2,0.1-1.8c-1.5,0.2-2.9,0.4-4.4,0.6
			c-3.4,39.2-6.8,78.4-10.2,117.6c-15.6,0-31.1,0-46.7,0c13.6-39.2,27.3-78.4,40.9-117.7c-2.2,0-4.4,0.1-6.7,0.1
			c-12.5,29.5-25,59.1-37.6,88.6c-13.3,0-26.6,0-39.9,0c20.6-29.6,41.2-59.1,61.8-88.7c-2.3-0.1-4.7-0.2-7-0.3
			c-16.2,21.3-32.5,42.7-48.7,64c-10.5,0-21,0-31.4,0c21.3-21.2,42.5-42.5,63.8-63.7c-2.1,0.1-4.3,0.1-6.4,0.2v0
			c-23.3,20.7-46.6,41.4-69.9,62.1c0,7.4,0,14.8,0,22.2c9.1,0,18.3,0,27.4,0c-1.2,1.2-2.3,2.4-3.5,3.6c0.1,8.4,0.1,16.8,0.2,25.2
			c14.4,0.1,28.8,0.1,43.2,0.2c-1.1,1.2-2.4,2.5-3.5,3.6v27.2c24.1-0.1,49.1,0.1,73.2,0l0-9.3c1.8,0.1,3.5,0.2,5.3,0.4
			C349.5,406.7,350.7,405.8,351.8,404.9z M222.5,355.3c2.9-4.9,8.1-12.4,8.2-18.2h5.6C233.9,344.3,229.5,351.7,222.5,355.3z
			 M235,355.5l-4.1,0c5.1-4.8,9.7-11.2,11.3-18.1c2.5,0,5.1-0.1,7.6-0.1L235,355.5L235,355.5z M243.9,383.3c6.1-7,7.9-12,10.1-20.8
			h4.7C255.5,371.2,252.7,379,243.9,383.3z M260.4,384.5h-5.4c4.9-7.1,10-13.5,12.1-22h10.4C275.3,371.2,266.6,378.6,260.4,384.5z
			 M274.3,384.5h-7c5.5-3.3,9.1-7.4,13.7-12L274.3,384.5z M289.1,415.4c4.8-8.4,8.3-14.6,10.1-24.3h4.5c-3.1,8.7-6.7,17.2-12.4,24.3
			H289.1z M300.9,415.4c5.2-7.5,10.9-15.3,13.4-24.3h10.4c-4.1,12.7-9.4,15.1-17.4,24.3H300.9z M324.5,415.4h-9.8
			c6.6-7,15.5-14.5,18.4-24.3h9l-0.4,10.6c0.7-0.1,1.5-0.3,2.2-0.4C338.4,408.4,332.3,411.5,324.5,415.4z M348.5,275.2
			c0.5,0,1,0,1.4,0c-0.3,41.3-0.5,82.6-0.8,123.9c-1.6,0-3.3,0.1-4.9,0.1C345.7,357.8,347.1,316.5,348.5,275.2z"/>
		<g>
			<path class="st4" d="M293.8,310.5c-2.7,9.4-8.6,17-14.4,25.2c10.5-8.6,15.8-13.9,19.3-24.8c4-12.4-0.4-17.1,4.9-26.6
				c2.9-5.1,6.2-8.5,10.6-12.2c-1.5,0.1-3.1,0.2-4.6,0.3c-3.1,3.8-6.3,7.4-8.9,11.6C293.9,295.1,297.4,298.2,293.8,310.5z"/>
			<path class="st4" d="M305.1,301.2c-1-13.5,3.9-20.8,13.9-29.1c-1.2,0-2.3,0.1-3.5,0.1C306,280.2,300.5,288,305.1,301.2z"/>
			<path class="st4" d="M318.3,323.3c-3.5,22.8-5.9,30.2-15.1,51.2c16-21.9,19.4-27.5,20.4-54.7c0.2-2.9,0.3-5.8,0.5-8.6
				c0.8-14.8,5.9-26.6,14.2-38.9c-1.8-0.1-3.5-0.2-5.3-0.2v0c-5.9,12.6-11.5,25.5-13.2,39.4C319.3,315.4,318.8,319.3,318.3,323.3z"
				/>
			<path class="st4" d="M329,311c0.4-16.8,4.4-25.2,14.2-38.7c-1.1,0-2.3,0-3.4,0C329.8,287.8,326.2,292.1,329,311z"/>
			<polygon class="st4" points="279.5,335.7 279.5,335.7 279.5,335.7 			"/>
			<path class="st4" d="M278.6,289.6c-0.6-8.5,7.2-14.2,17.2-17.4c-2.2,0-4.4,0-6.6,0C282.8,276.3,274.3,281.3,278.6,289.6z"/>
			<path class="st4" d="M268.6,294.5c-1.7,10-6.8,13.2-17.1,19.5c12.5-3.9,21.4-9.2,23.2-21.9c1.6-12,3.5-13.6,13.2-20
				c-1.2,0.1-2.5,0.2-3.7,0.3C275.8,278.4,270.3,284.8,268.6,294.5z"/>
			<polygon class="st4" points="251.5,314 251.5,314 251.5,314 			"/>
		</g>
		
			<radialGradient id="SVGID_00000048471908702384775770000011406489458336824997_" cx="3492.9443" cy="-5790.7534" r="22322.3398" gradientTransform="matrix(2.834646e-02 0 0 -2.834646e-02 797.7275 349.4598)" gradientUnits="userSpaceOnUse">
			<stop  offset="0" style="stop-color:#FF0000"/>
			<stop  offset="1" style="stop-color:#FF6600"/>
		</radialGradient>
		<path style="fill:url(#SVGID_00000048471908702384775770000011406489458336824997_);" d="M377.9,448.8h105.8v157.6h-33.8V482.5
			h-38.3v123.8h-33.8L377.9,448.8L377.9,448.8z M501.7,448.8h105.8v110.3h-72v47.3h-33.8V448.8L501.7,448.8z M535.4,482.5v42.8h38.3
			v-42.8H535.4z M624.3,448.8h105.8v157.6H624.3V448.8z M658.1,482.5v90h38.3v-90H658.1z M747,587.2V466.8h58.5v-23.6h33.8v23.6
			h58.5v120.4h-58.5v26.6h-33.8v-26.6H747z M780.8,555.7h25.9v-57.4h-25.9V555.7z M838.2,498.3v57.4h25.9v-57.4H838.2z M924.4,279.9
			h219.2v326.4h-69.9V349.9h-79.3v256.5h-69.9L924.4,279.9L924.4,279.9z M1180.8,279.9H1400v326.4h-219.2V279.9z M1250.8,349.9
			v186.5h79.3V349.9H1250.8z M1462.9,279.9h180.5v326.4h-69.9V349.9H1524l-31.7,256.5h-83.5v-69.9h25.2L1462.9,279.9L1462.9,279.9z"
			/>
		<path class="st6" d="M747.8,629.6h7.6v13.7h8.6v-13.7h7.6V665H764v-14h-8.6v14h-7.6v-27.8V629.6L747.8,629.6z M777.2,629.6h18.1
			l3.4,35.4h-7.6l-0.8-8.3h-8.3l-0.8,8.3h-7.6L777.2,629.6L777.2,629.6z M782.8,649.1h7l-1.1-11.9h-4.8L782.8,649.1L782.8,649.1z
			 M801.1,629.6h23.7V665h-7.6v-27.8h-8.6V665h-7.6V629.6z M828.9,629.6h23.7V665h-23.7V629.6z M836.4,637.2v20.2h8.6v-20.2H836.4z
			 M859.4,629.6H879V665h-7.6v-27.8H866l-3.4,27.8h-9v-7.6h2.7L859.4,629.6L859.4,629.6z M883,665v-27.8v-7.6h7.6v13h15.7V665
			L883,665L883,665z M890.6,650.2v7.2h8.1v-7.2H890.6z M910.1,629.6h7.6v13.7h8.6v-13.7h7.6V665h-7.6v-14h-8.6v14h-7.6v-27.8
			L910.1,629.6L910.1,629.6z M937.8,665v-27.8v-7.6h7.6v13h15.7V665L937.8,665L937.8,665z M945.4,650.2v7.2h8.1v-7.2H945.4z
			 M966.1,629.6h7.6V665h-7.6V629.6z M977.7,629.6h23.2v7.6h-15.7v6.3h8v7.6h-8v6.3h15.7v7.6h-23.2V629.6z M1016,629.6h23.7V665
			h-7.6v-27.8h-8.6V665h-7.6L1016,629.6L1016,629.6z M1043.8,629.6h23.7V665h-23.7V629.6z M1051.4,637.2v20.2h8.6v-20.2H1051.4z
			 M1079.2,651v14h-7.6v-27.8v-7.6h7.6v13.7h3.5l6.6-13.7h8l-8.5,17.1l9,18.3h-8.3l-6.8-14H1079.2z M1099.3,629.6h23.7v24.8h-16.2
			V665h-7.6V629.6z M1106.9,637.2v9.6h8.6v-9.6H1106.9z M1126.8,665v-27.8v-7.6h7.6v13h15.7V665L1126.8,665L1126.8,665z
			 M1134.4,650.2v7.2h8.1v-7.2H1134.4z M1155.1,629.6h7.6V665h-7.6V629.6L1155.1,629.6z M1165,629.6h23.7v7.6h-8.1V665h-7.6v-27.8
			h-8.1L1165,629.6L1165,629.6z M1208.6,629.6h7.6V665h-7.6v-21.1l-10,21.1h-7.6v-27.8v-7.6h7.6v21.1L1208.6,629.6z M1244.1,629.6
			V665h-7.6v-11.6h-3.6l-5.7,11.6h-8.6l6.5-11.9h-4.7v-23.5H1244.1L1244.1,629.6z M1236.6,637.2h-8.6v8.6h8.6V637.2z M1263.5,629.6
			h19.6V665h-7.6v-27.8h-5.4l-3.4,27.8h-9v-7.6h2.7L1263.5,629.6L1263.5,629.6z M1299.8,629.6h22.2V665h-22.2v-14h-5.1v14h-7.6
			v-35.4h7.6v13.7h5.1V629.6L1299.8,629.6z M1306.8,637.2v20.2h7.6v-20.2H1306.8z M1326,665v-35.4h23.7v7.6h-16.2v5.9h16.2V665H1326
			z M1333.6,657.4h8.6v-6.7h-8.6V657.4z M1353.8,629.6h23.7V665h-23.7V629.6L1353.8,629.6z M1361.4,637.2v20.2h8.6v-20.2H1361.4z
			 M1381.6,629.6h21v7.6h-13.4V665h-7.6V629.6L1381.6,629.6z M1404.7,629.6h23.7V665h-23.7V629.6L1404.7,629.6z M1412.3,637.2v20.2
			h8.6v-20.2H1412.3z M1444,660.7v-27h13.1v-5.3h7.6v5.3h13.1v27h-13.1v6h-7.6v-6H1444z M1451.6,653.6h5.8v-12.9h-5.8V653.6z
			 M1464.5,640.8v12.9h5.8v-12.9H1464.5z M1481.7,629.6h23.7V665h-23.7V629.6L1481.7,629.6z M1489.3,637.2v20.2h8.6v-20.2H1489.3z
			 M1509.5,629.6h23.7v24.8H1517V665h-7.6V629.6L1509.5,629.6z M1517,637.2v9.6h8.6v-9.6H1517z M1537,629.6h7.6l7.2,12.9l7.2-12.9
			h7.6V665h-7.6v-22.9l-7.2,12.7l-7.2-12.7V665h-7.6v-27.8V629.6z M1572.3,629.6h18.1l3.4,35.4h-7.6l-0.8-8.3h-8.3l-0.8,8.3h-7.6
			L1572.3,629.6L1572.3,629.6z M1577.9,649.1h7l-1.1-11.9h-4.8L1577.9,649.1z M1592.5,629.6h23.7v7.6h-8.1V665h-7.6v-27.8h-8.1
			V629.6L1592.5,629.6z M1620.2,629.6h18.1l3.4,35.4h-7.6l-0.8-8.3h-8.3l-0.8,8.3h-7.6L1620.2,629.6L1620.2,629.6z M1625.8,649.1h7
			l-1.1-11.9h-4.8L1625.8,649.1z"/>
		<path class="st3" d="M198,444.5v156.1h157.6V444.5H198z M274.6,512.4c-0.1,0.2-0.1,0.3-0.2,0.4c-0.1,0.4,0,0.1-0.1,0.4
			c-0.6,0.3-0.3,0-0.8,0.6c-0.2,0.2-0.3,0.4-0.6,0.7l-6,6.2c-2,2.1-2.1,0.5-3.3,1.7l0,0c-1.2,0-0.7,0.4-1.5-0.3
			c-1.4-1.3-5.1-5.8-7-7.6c1.2-0.8,2.1-1,3.2-1.9c5.3-4.1,5.1-6.3,6.9-8.6c0.8,0.3,1.8,1.4,2.5,2.1c0.8,0.8,1.4,1.3,2.3,2.1
			C271.7,509.7,273.2,511,274.6,512.4z M210.1,490.5V490c0.4-0.3,0.5-0.4,1-0.8c0.3-0.3,0.5-0.5,0.7-0.8l4.3-4.6
			c1-1.1,1.8-2,2.9-3.1c0.9-0.9,2-2.5,3.1-3c0.4,0.8,1.1,1.9,1.5,2.5l10.7,17c1.2-0.2,10.4-2.9,10.8-3.4c0.4-0.5,3.2-10,3.2-10.7
			l-14.6-9.3c-1.2-0.8-4-2.2-4.7-3.2l12.3-11.7c1,0.2,17.6,9.7,20.8,11.5l6.9,3.9l-7.4,27.5c-2.1,0.7-2.8,1.3-4,2.5
			c-1.1,1.1-2.2,2.1-3.1,3.3c-1.8,2.3,0.4,2.2-3.5,3.1l-15.3,4.1c-1.7,0.5-3.3,0.9-5,1.4c-1.3,0.4-3.8,1.2-5,1.3l-15-26.8
			C210.2,490.6,210.3,490.7,210.1,490.5z M275.3,537.3l-28.7,32.2c-0.8,0.8-0.9,1-1.5,1.7c-0.5,0.6-1,1-1.4,1.6l-11.5,12.8
			c-1.4,1.5-1.8,1.2-3.7,2c-6.6,0.4-8.2-2.5-11.2-5.4c-2.3-2.3-6.5-5.3-4.7-11.1c0.7-2.4,3.5-4.6,5.7-6.5c3.5-3.1,7.8-6.7,11.1-9.8
			c1.3-1.3,2.7-2.4,4.3-3.8l13.2-11.7c0.8-0.8,1.3-1.2,2.1-1.9l13.1-11.6c1.1-1,1.4-0.8,2.5-1.6h0c3.9-0.6,6.9,1.2,8.8,3.5
			C275.6,530.5,276.8,532.7,275.3,537.3z M335,570.3c-1.1,4.5-7.2,10.5-10.9,12.4c-1,0.5-3.3,1.8-4.7,1l-14.1-15.2
			c-4.4-4.7-13.1-13.8-16.9-18.3c-2.2-2.5-10.2-10.7-11.1-12.1c0.9-2.5,0.6-2.5,0.9-4.9c0.1-0.4,0.3-0.9,0.9-1.5
			c0.8-0.8,1.3-1.3,2.3-2.3c1.1-1.1,4-4,4.7-5.1c0.5-0.1,0.2-0.2,0.8-0.4c1.1,1.1,2.1,1.9,3.1,2.9c1.2,1.2,2,1.8,3.1,2.8
			c1.4,1.3,5.4,5.2,6.4,5.9c0.2,0.5,5.4,5.2,5.9,5.7c4.7,4.3,10.7,10.2,15.3,14.2l12.2,11.3C334.1,567.5,335.5,568.1,335,570.3z
			 M343.6,500.2c-0.4,0.5-0.6,1.1-1,1.6l-3.6,3.7c-1.5,1.5-5.8,6.5-7.9,6.9c-3.1,0.5-5.2-2.3-4.5-4.9c0.5-1.7,1.4-1.8,1.9-2.9
			c-1.1-1.2-6.7-4.8-8.5-5.6c-3.1-1.4-3,0.2-5.6,0.2c-2.3,0-3.5-1.2-4.9-2c-1.2,0.7-5.2,5.3-6.5,6.6c-2.3,2.4-19,19.3-19.2,20.1
			c-0.9,0.4-2.6,2.4-3.3,3.2c-0.7,0.8-2.2,2.5-3.2,3c-1.8-4.3-4.7-6.4-8.5-8.1l6.3-6.7c0.6-0.6,1.7-1.5,2.1-2.3
			c0.6-0.1,11.7-11.9,11.9-12.2c1.1-1.1,2-2.1,3-3.2c3-3.1,5.7-5.7,8.8-9.1c-0.2-1-0.8-1.2-0.9-2.6c-0.2-3.1,2.3-3.8,2.8-7.7
			c0.9-7.4-6.9-13-13.1-15.3c-1.8-0.7-3.6-1.3-5.6-1.7c-2.7-0.6-4.8-0.5-5.3-1.8c1.9-1.6,7.3-2.1,10.4-1.9c8,0.4,15.7,4.5,22,9
			l10.1,8.3c3.3,3.1,3.1,2.8,5.8,6.5c7.1,9.9,3.7,9.5,5.6,13c0.7,1.2,1.9,2.6,2.3,3.7c0.7-0.4,3.8-4.4,7-1.7c0.9,0.8,0.8,1.2,1.4,2
			V500.2z"/>
		<path class="st7" d="M319.6,565.6L319.6,565.6c-3.3,1.1-4.7,3.9-3.8,6.9c2,6.6,12.6,3.7,10.5-3.2
			C325.5,566.9,322.9,564.5,319.6,565.6z"/>
	</g>
</g>
</svg>
